<?xml version="1.0" standalone="no"?>
<!DOCTYPE svg PUBLIC "-//W3C//DTD SVG 20010904//EN"
 "http://www.w3.org/TR/2001/REC-SVG-20010904/DTD/svg10.dtd">
<svg version="1.0" xmlns="http://www.w3.org/2000/svg"
 width="668.000000pt" height="438.000000pt" viewBox="0 0 668.000000 438.000000"
 preserveAspectRatio="xMidYMid meet">

<g transform="translate(0.000000,438.000000) scale(0.100000,-0.100000)"
fill="#000000" stroke="none">
<path d="M0 2190 l0 -2190 3340 0 3340 0 0 2190 0 2190 -3340 0 -3340 0 0
-2190z m2560 890 l0 -190 -56 0 -57 0 6 41 c5 41 -8 216 -19 251 -5 16 -20 18
-170 18 l-164 0 0 -945 0 -945 65 0 65 0 0 -30 0 -30 -220 0 -220 0 0 30 0 30
70 0 70 0 0 945 0 945 -170 0 -170 0 -1 -27 c0 -16 0 -90 1 -166 l2 -138 -74
3 -73 3 0 100 c0 55 4 144 9 198 l8 97 549 0 549 0 0 -190z m480 155 l0 -35
-55 0 -55 0 0 -945 0 -945 300 0 c279 0 300 1 301 18 0 9 0 83 -1 165 l-2 147
36 0 c19 0 58 -5 86 -11 l50 -11 0 -184 0 -184 -545 0 -545 0 0 30 0 30 65 0
65 0 0 945 0 945 -65 0 -65 0 0 35 0 35 215 0 215 0 0 -35z m1320 25 c345 -19
396 -25 451 -60 103 -67 170 -168 187 -285 16 -107 6 -303 -18 -375 -34 -101
-96 -177 -199 -245 l-39 -27 61 -52 c105 -89 170 -188 203 -311 30 -110 10
-306 -43 -414 -32 -67 -131 -167 -203 -206 l-55 -30 -477 -3 -478 -3 0 31 0
30 65 0 65 0 0 945 0 945 -65 0 -65 0 0 35 0 35 208 0 c114 0 295 -5 402 -10z"/>
<path d="M1573 3035 c0 -27 2 -38 4 -22 2 15 2 37 0 50 -2 12 -4 0 -4 -28z"/>
<path d="M1573 2925 c0 -22 2 -30 4 -17 2 12 2 30 0 40 -3 9 -5 -1 -4 -23z"/>
<path d="M3541 1424 c0 -11 3 -14 6 -6 3 7 2 16 -1 19 -3 4 -6 -2 -5 -13z"/>
<path d="M4190 3219 c-36 -4 -75 -11 -87 -14 l-23 -5 0 -450 0 -450 188 1
c280 1 329 7 391 49 77 52 109 105 131 208 54 266 24 449 -92 558 -27 25 -69
54 -94 65 -100 45 -253 59 -414 38z"/>
<path d="M4125 2242 l-40 -7 -3 -464 -2 -464 255 6 c251 6 257 6 299 31 24 14
64 48 89 76 39 43 49 63 64 128 25 109 26 365 0 438 -38 111 -135 203 -250
240 -56 18 -334 28 -412 16z"/>
</g>
</svg>
