<!DOCTYPE svg PUBLIC "-//W3C//DTD SVG 1.1//EN" "http://www.w3.org/Graphics/SVG/1.1/DTD/svg11.dtd">
<svg xmlns="http://www.w3.org/2000/svg" version="1.1" width="677px" height="505px" style="shape-rendering:geometricPrecision;text-rendering:geometricPrecision;image-rendering:optimizeQuality;fill-rule:evenodd;clip-rule:evenodd" xmlns:xlink="http://www.w3.org/1999/xlink">
  <g>
    <path style="opacity:1" fill="#000" d="M -0.5,-0.5 C 225.167,-0.5 450.833,-0.5 676.5,-0.5C 676.5,167.833 676.5,336.167 676.5,504.5C 450.833,504.5 225.167,504.5 -0.5,504.5C -0.5,336.167 -0.5,167.833 -0.5,-0.5 Z"/>
  </g>
  <g>
    <path style="opacity:1" fill="#fbfbfb" d="M 222.5,210.5 C 239.167,210.5 255.833,210.5 272.5,210.5C 272.5,216.167 272.5,221.833 272.5,227.5C 270.833,227.5 269.167,227.5 267.5,227.5C 267.819,222.637 267.486,217.97 266.5,213.5C 261.5,213.5 256.5,213.5 251.5,213.5C 251.5,242.167 251.5,270.833 251.5,299.5C 253.5,299.5 255.5,299.5 257.5,299.5C 257.5,300.5 257.5,301.5 257.5,302.5C 250.833,302.5 244.167,302.5 237.5,302.5C 237.5,301.5 237.5,300.5 237.5,299.5C 239.5,299.5 241.5,299.5 243.5,299.5C 243.5,270.833 243.5,242.167 243.5,213.5C 238.5,213.5 233.5,213.5 228.5,213.5C 227.514,217.97 227.181,222.637 227.5,227.5C 225.833,227.5 224.167,227.5 222.5,227.5C 222.5,221.833 222.5,216.167 222.5,210.5 Z"/>
  </g>
  <g>
    <path style="opacity:1" fill="#f1f1f1" d="M 316.5,299.5 C 317.486,295.03 317.819,290.363 317.5,285.5C 319.833,285.5 322.167,285.5 324.5,285.5C 324.5,291.167 324.5,296.833 324.5,302.5C 307.833,302.5 291.167,302.5 274.5,302.5C 274.5,301.5 274.5,300.5 274.5,299.5C 276.5,299.5 278.5,299.5 280.5,299.5C 280.5,270.833 280.5,242.167 280.5,213.5C 278.5,213.5 276.5,213.5 274.5,213.5C 274.5,212.5 274.5,211.5 274.5,210.5C 281.167,210.5 287.833,210.5 294.5,210.5C 294.5,211.5 294.5,212.5 294.5,213.5C 292.833,213.5 291.167,213.5 289.5,213.5C 289.5,242.167 289.5,270.833 289.5,299.5C 298.5,299.5 307.5,299.5 316.5,299.5 Z"/>
  </g>
  <g>
    <path style="opacity:1" fill="#efefef" d="M 326.5,210.5 C 341.905,210.048 357.238,210.548 372.5,212C 380.925,216.518 384.592,223.518 383.5,233C 384.591,243.433 380.591,251.1 371.5,256C 383.08,263.897 386.914,274.73 383,288.5C 380.474,295.026 375.974,299.526 369.5,302C 355.171,302.5 340.837,302.667 326.5,302.5C 326.5,301.5 326.5,300.5 326.5,299.5C 328.5,299.5 330.5,299.5 332.5,299.5C 332.5,270.833 332.5,242.167 332.5,213.5C 330.5,213.5 328.5,213.5 326.5,213.5C 326.5,212.5 326.5,211.5 326.5,210.5 Z"/>
  </g>
  <g>
    <path style="opacity:1" fill="#818181" d="M 222.5,210.5 C 222.5,216.167 222.5,221.833 222.5,227.5C 224.167,227.5 225.833,227.5 227.5,227.5C 227.181,222.637 227.514,217.97 228.5,213.5C 228.5,218.5 228.5,223.5 228.5,228.5C 226.167,228.5 223.833,228.5 221.5,228.5C 221.177,222.31 221.51,216.31 222.5,210.5 Z"/>
  </g>
  <g>
    <path style="opacity:1" fill="#010101" d="M 341.5,213.5 C 369.346,208.177 379.846,219.177 373,246.5C 371.108,250.058 368.275,252.558 364.5,254C 356.841,254.5 349.174,254.666 341.5,254.5C 341.5,240.833 341.5,227.167 341.5,213.5 Z"/>
  </g>
  <g>
    <path style="opacity:1" fill="#5e5e5e" d="M 272.5,210.5 C 273.49,216.31 273.823,222.31 273.5,228.5C 271.167,228.5 268.833,228.5 266.5,228.5C 266.5,223.5 266.5,218.5 266.5,213.5C 267.486,217.97 267.819,222.637 267.5,227.5C 269.167,227.5 270.833,227.5 272.5,227.5C 272.5,221.833 272.5,216.167 272.5,210.5 Z"/>
  </g>
  <g>
    <path style="opacity:1" fill="#010101" d="M 341.5,257.5 C 369.157,252.989 379.657,264.323 373,291.5C 371.108,295.058 368.275,297.558 364.5,299C 356.841,299.5 349.174,299.666 341.5,299.5C 341.5,285.5 341.5,271.5 341.5,257.5 Z"/>
  </g>
  <g>
    <path style="opacity:1" fill="#868686" d="M 324.5,285.5 C 322.167,285.5 319.833,285.5 317.5,285.5C 317.819,290.363 317.486,295.03 316.5,299.5C 316.5,294.5 316.5,289.5 316.5,284.5C 319.385,284.194 322.052,284.527 324.5,285.5 Z"/>
  </g>
</svg>
